# xmcd
#
# Track frame offsets:
#	150
#	14588
#	28609
#	39128
#	54840
#	60390
#	72052
#	85938
#
# Disc length: 1364 seconds
#
# Revision: 1
# Processed by: cddbd v1.5.2PL0 Copyright (c) Steve Scherf et al.
# Submitted via: audiograbber 1.83.01
#
DISCID=56055208
DTITLE=SCORE - HISCORE
DYEAR=2006
DGENRE=Hip-Hop
TTITLE0=HISCORE
TTITLE1=MEIN WEG
TTITLE2=ICH KOTZ MICH AUS
TTITLE3=ABRISSBIRNE
TTITLE4=GOTNOBORDER
TTITLE5=SANDALENFILM
TTITLE6=SCHWAECHEN
TTITLE7=DU WIRST HEUTE STERBEN MUTTERFICKER
EXTD=www.tbs-mob.de\nwww.untergrundrap.de
EXTT0=
EXTT1=
EXTT2=
EXTT3=mit triggah and koozy
EXTT4=
EXTT5=mit triggah
EXTT6=mit schusetta
EXTT7=
PLAYORDER=
